<svg width="244" height="243" fill="none" xmlns="http://www.w3.org/2000/svg"><path d="M233.583 168.522a126.285 126.285 0 004.829-13.75L88.235 4.595a113.364 113.364 0 00-13.75 4.83l159.098 159.097zm-10.296 19.451a115.322 115.322 0 006.775-11.805L66.805 12.912A115.215 115.215 0 0055 19.686l168.287 168.287zm-13.113 16.634a119.94 119.94 0 008.484-10.094L48.46 24.314c-3.488 2.616-6.842 5.467-10.095 8.485l171.809 171.808zM6.438 160.741c5.802 17.07 15.494 33.101 29.11 46.717 13.616 13.615 29.647 23.308 46.717 29.109L6.438 160.741zM145.481 2.314A121.844 121.844 0 00124.588 0l118.418 118.418a121.887 121.887 0 00-2.314-20.894l-95.211-95.21zm95.112 143.47c1.106-5.433 1.811-10.899 2.18-16.399L113.623.235c-5.5.37-11 1.073-16.4 2.18l143.37 143.369zm-64.426 84.277a115.163 115.163 0 0011.805-6.775L19.718 55.033a115.195 115.195 0 00-6.774 11.805l163.223 163.223zM97.525 240.66a121.885 121.885 0 0020.893 2.314L0 124.556c.168 7.009.939 13.985 2.314 20.893l95.21 95.211zM236.533 82.232c-5.802-17.07-15.494-33.1-29.109-46.717-13.616-13.616-29.647-23.308-46.717-29.11l75.826 75.827zm-81.762 156.18a113.294 113.294 0 0013.75-4.83L9.39 74.451a126.114 126.114 0 00-4.83 13.75l150.211 150.211zm-25.386 4.359c5.5-.369 11-1.073 16.399-2.18L2.381 97.189c-1.106 5.433-1.81 10.899-2.18 16.399l129.184 129.183zm65.127-24.112c3.488-2.616 6.842-5.467 10.095-8.485L32.832 38.399a119.656 119.656 0 00-8.485 10.095l170.165 170.165z" opacity=".5" fill="#7371FC"/></svg>