<svg width="214" height="212" fill="none" xmlns="http://www.w3.org/2000/svg"><path opacity=".5" d="M205.748 16.303c-4.548 0-8.253-3.66-8.253-8.151C197.495 3.66 201.2 0 205.748 0 210.295 0 214 3.66 214 8.152c0 4.491-3.677 8.151-8.252 8.151zM214 56.923c0-4.492-3.705-8.152-8.252-8.152-4.548 0-8.253 3.66-8.253 8.151 0 4.492 3.705 8.152 8.253 8.152 4.575 0 8.252-3.632 8.252-8.152zm0 48.77c0-4.491-3.705-8.151-8.252-8.151-4.548 0-8.253 3.66-8.253 8.151 0 4.492 3.705 8.152 8.253 8.152 4.575 0 8.252-3.632 8.252-8.152zm0 48.771c0-4.492-3.705-8.152-8.252-8.152-4.548 0-8.253 3.66-8.253 8.152 0 4.492 3.705 8.152 8.253 8.152 4.575.027 8.252-3.633 8.252-8.152zm0 48.799c0-4.492-3.705-8.152-8.252-8.152-4.548 0-8.253 3.66-8.253 8.152 0 4.491 3.705 8.151 8.253 8.151 4.575 0 8.252-3.66 8.252-8.151zM164.626 8.152c0-4.492-3.705-8.152-8.252-8.152-4.547 0-8.253 3.66-8.253 8.152 0 4.491 3.706 8.151 8.253 8.151 4.575 0 8.252-3.66 8.252-8.151zm0 48.77c0-4.491-3.705-8.151-8.252-8.151-4.547 0-8.253 3.66-8.253 8.151 0 4.492 3.706 8.152 8.253 8.152 4.575 0 8.252-3.632 8.252-8.152zm0 48.771c0-4.491-3.705-8.151-8.252-8.151-4.547 0-8.253 3.66-8.253 8.151 0 4.492 3.706 8.152 8.253 8.152 4.575 0 8.252-3.632 8.252-8.152zm0 48.771c0-4.492-3.705-8.152-8.252-8.152-4.547 0-8.253 3.66-8.253 8.152 0 4.492 3.706 8.152 8.253 8.152 4.575.027 8.252-3.633 8.252-8.152zm0 48.799c0-4.492-3.705-8.152-8.252-8.152-4.547 0-8.253 3.66-8.253 8.152 0 4.491 3.706 8.151 8.253 8.151 4.575 0 8.252-3.66 8.252-8.151zM115.252 8.152C115.252 3.66 111.547 0 107 0c-4.547 0-8.252 3.66-8.252 8.152 0 4.491 3.705 8.151 8.252 8.151 4.547 0 8.252-3.66 8.252-8.151zm0 48.77c0-4.491-3.705-8.151-8.252-8.151-4.547 0-8.252 3.66-8.252 8.151 0 4.492 3.705 8.152 8.252 8.152 4.547 0 8.252-3.632 8.252-8.152zm0 48.771c0-4.491-3.705-8.151-8.252-8.151-4.547 0-8.252 3.66-8.252 8.151 0 4.492 3.705 8.152 8.252 8.152 4.547 0 8.252-3.632 8.252-8.152zm0 48.771c0-4.492-3.705-8.152-8.252-8.152-4.547 0-8.252 3.66-8.252 8.152 0 4.492 3.705 8.152 8.252 8.152 4.547 0 8.252-3.633 8.252-8.152zm0 48.799c0-4.492-3.705-8.152-8.252-8.152-4.547 0-8.252 3.66-8.252 8.152 0 4.491 3.705 8.151 8.252 8.151 4.547 0 8.252-3.66 8.252-8.151zM65.879 8.152C65.879 3.66 62.172 0 57.626 0c-4.547 0-8.252 3.66-8.252 8.152 0 4.491 3.705 8.151 8.252 8.151 4.547 0 8.253-3.66 8.253-8.151zm0 48.77c0-4.491-3.706-8.151-8.253-8.151-4.547 0-8.252 3.66-8.252 8.151 0 4.492 3.705 8.152 8.252 8.152 4.547 0 8.253-3.632 8.253-8.152zm0 48.771c0-4.491-3.706-8.151-8.253-8.151-4.547 0-8.252 3.66-8.252 8.151 0 4.492 3.705 8.152 8.252 8.152 4.547 0 8.253-3.632 8.253-8.152zm0 48.771c0-4.492-3.706-8.152-8.253-8.152-4.547 0-8.252 3.66-8.252 8.152 0 4.492 3.705 8.152 8.252 8.152 4.547.027 8.253-3.633 8.253-8.152zm0 48.799c0-4.492-3.706-8.152-8.253-8.152-4.547 0-8.252 3.66-8.252 8.152 0 4.491 3.705 8.151 8.252 8.151 4.547 0 8.253-3.66 8.253-8.151zM16.505 8.152C16.505 3.66 12.8 0 8.252 0 3.705 0 0 3.66 0 8.152c0 4.491 3.705 8.151 8.252 8.151 4.548 0 8.253-3.66 8.253-8.151zm0 48.77c0-4.491-3.705-8.151-8.253-8.151C3.705 48.77 0 52.43 0 56.922s3.705 8.152 8.252 8.152c4.548 0 8.253-3.632 8.253-8.152zm0 48.771c0-4.491-3.705-8.151-8.253-8.151-4.547 0-8.252 3.66-8.252 8.151 0 4.492 3.705 8.152 8.252 8.152 4.548 0 8.253-3.632 8.253-8.152zm0 48.771c0-4.492-3.705-8.152-8.253-8.152-4.547 0-8.252 3.66-8.252 8.152 0 4.492 3.705 8.152 8.252 8.152 4.548.027 8.253-3.633 8.253-8.152zm0 48.799c0-4.492-3.705-8.152-8.253-8.152-4.547 0-8.252 3.66-8.252 8.152 0 4.491 3.705 8.151 8.252 8.151 4.548 0 8.253-3.66 8.253-8.151z" fill="#7371FC"/></svg>