<svg width="24" height="24" fill="none" xmlns="http://www.w3.org/2000/svg"><path fill-rule="evenodd" clip-rule="evenodd" d="M14.596 18.826c-2.012 0-4.38-1.068-6.367-3.055-3.172-3.172-4-7.314-1.886-9.428a3.926 3.926 0 012.262-1.131l.506-.073 1.865 4.348-1.865.932c.432.818 1.087 1.664 1.946 2.524.82.819 1.665 1.469 2.514 1.93l.876-1.715 4.322.617.025.552c.063 1.372-.33 2.524-1.137 3.33-.79.79-1.862 1.169-3.061 1.169zM8.307 6.648a2.6 2.6 0 00-1.021.639c-1.533 1.532-.67 4.986 1.885 7.542 2.556 2.555 6.01 3.417 7.543 1.885.51-.51.695-1.184.74-1.78l-2.245-.32-.43.862a1.316 1.316 0 01-.791.673c-.347.11-.733.071-1.055-.104-.96-.522-1.91-1.249-2.82-2.159-.952-.953-1.685-1.906-2.178-2.832a1.339 1.339 0 01.582-1.829l.737-.368-.947-2.209z" fill="#fff"/></svg>