<svg xmlns="http://www.w3.org/2000/svg" style="margin:auto;background:0 0" width="200" height="200" viewBox="0 0 100 100" preserveAspectRatio="xMidYMid" display="block"><rect x="48.5" y="27.5" rx="1.5" ry="3.5" width="3" height="7"><animate attributeName="opacity" values="1;0" keyTimes="0;1" dur="1s" begin="-0.9s" repeatCount="indefinite"/></rect><rect x="48.5" y="27.5" rx="1.5" ry="3.5" width="3" height="7" transform="rotate(36 50 50)"><animate attributeName="opacity" values="1;0" keyTimes="0;1" dur="1s" begin="-0.8s" repeatCount="indefinite"/></rect><rect x="48.5" y="27.5" rx="1.5" ry="3.5" width="3" height="7" transform="rotate(72 50 50)"><animate attributeName="opacity" values="1;0" keyTimes="0;1" dur="1s" begin="-0.7s" repeatCount="indefinite"/></rect><rect x="48.5" y="27.5" rx="1.5" ry="3.5" width="3" height="7" transform="rotate(108 50 50)"><animate attributeName="opacity" values="1;0" keyTimes="0;1" dur="1s" begin="-0.6s" repeatCount="indefinite"/></rect><rect x="48.5" y="27.5" rx="1.5" ry="3.5" width="3" height="7" transform="rotate(144 50 50)"><animate attributeName="opacity" values="1;0" keyTimes="0;1" dur="1s" begin="-0.5s" repeatCount="indefinite"/></rect><rect x="48.5" y="27.5" rx="1.5" ry="3.5" width="3" height="7" transform="rotate(180 50 50)"><animate attributeName="opacity" values="1;0" keyTimes="0;1" dur="1s" begin="-0.4s" repeatCount="indefinite"/></rect><rect x="48.5" y="27.5" rx="1.5" ry="3.5" width="3" height="7" transform="rotate(216 50 50)"><animate attributeName="opacity" values="1;0" keyTimes="0;1" dur="1s" begin="-0.3s" repeatCount="indefinite"/></rect><rect x="48.5" y="27.5" rx="1.5" ry="3.5" width="3" height="7" transform="rotate(252 50 50)"><animate attributeName="opacity" values="1;0" keyTimes="0;1" dur="1s" begin="-0.2s" repeatCount="indefinite"/></rect><rect x="48.5" y="27.5" rx="1.5" ry="3.5" width="3" height="7" transform="rotate(288 50 50)"><animate attributeName="opacity" values="1;0" keyTimes="0;1" dur="1s" begin="-0.1s" repeatCount="indefinite"/></rect><rect x="48.5" y="27.5" rx="1.5" ry="3.5" width="3" height="7" transform="rotate(324 50 50)"><animate attributeName="opacity" values="1;0" keyTimes="0;1" dur="1s" begin="0s" repeatCount="indefinite"/></rect></svg>