<svg width="64" height="64" fill="none" xmlns="http://www.w3.org/2000/svg"><path fill-rule="evenodd" clip-rule="evenodd" d="M24 36.667c-6.24 0-18.667 3.12-18.667 9.333v4.667h37.334V46c0-6.213-12.427-9.333-18.667-9.333zm-12.427 8.666C13.813 43.787 19.227 42 24 42s10.187 1.787 12.427 3.333H11.573zM24 32c5.147 0 9.333-4.187 9.333-9.333 0-5.147-4.186-9.334-9.333-9.334s-9.333 4.187-9.333 9.334C14.667 27.813 18.853 32 24 32zm0-13.333c2.213 0 4 1.786 4 4 0 2.213-1.787 4-4 4s-4-1.787-4-4c0-2.214 1.787-4 4-4zm18.773 18.16C45.867 39.067 48 42.053 48 46v4.667h10.667V46c0-5.387-9.334-8.453-15.894-9.173zM40 32c5.147 0 9.333-4.187 9.333-9.333 0-5.147-4.186-9.334-9.333-9.334-1.44 0-2.773.347-4 .934a14.508 14.508 0 012.667 8.4c0 3.12-.987 6.026-2.667 8.4 1.227.586 2.56.933 4 .933z" fill="#fff"/></svg>